<svg xmlns="http://www.w3.org/2000/svg" xmlns:xlink="http://www.w3.org/1999/xlink" version="1.1" id="레이어_1" x="0px" y="0px" viewBox="0 0 150 100" xml:space="preserve"> <style type="text/css"> .st0{fill:none;} </style> <g> <path d="M43.3,57.7c-1.4,0-2.8,0-4.1,0c0.1-0.1,0.1-0.3,0.2-0.4c0.2-0.3,0.4-0.7,0.5-1c0.1-0.2,0.1-0.4,0.1-0.6 c0-0.7,0.1-1.4,0.1-2.1c0-2.5,0-5,0-7.5c0-0.7-0.1-1.3-0.1-1.9c0-0.2-0.1-0.4-0.1-0.5c-0.2-0.3-0.3-0.7-0.5-1 c-0.1-0.1-0.1-0.2-0.2-0.4c0.3-0.1,4.8-0.1,5.4,0c0,0.1,0.1,0.2,0.1,0.3c1.3,3.6,2.6,7.2,4,10.8c0.1,0.2,0.1,0.4,0.3,0.5 c0.3-0.7,0.5-1.3,0.7-2c0.2-0.6,0.5-1.3,0.7-1.9c0.2-0.6,0.5-1.3,0.7-1.9c0.2-0.6,0.5-1.3,0.7-1.9c0.2-0.6,0.5-1.3,0.7-1.9 c0.2-0.6,0.5-1.3,0.7-2c1.7,0,3.5,0,5.2,0c0.1,0.1,0,0.2-0.1,0.3c-0.2,0.3-0.3,0.6-0.5,0.9c-0.2,0.3-0.2,0.6-0.2,1 c0,0.5-0.1,1-0.1,1.4c0,2.8,0,5.6,0,8.4c0,0.4,0,0.9,0.1,1.3c0,0.6,0.3,1,0.6,1.5c0.1,0.2,0.2,0.3,0.3,0.5c0,0,0,0,0,0.1 c0,0,0,0,0,0c0,0-0.1,0-0.1,0c-1.6,0-3.1,0-4.7,0c0,0-0.1,0-0.1,0c0-0.1,0.1-0.2,0.1-0.3c0.2-0.3,0.4-0.7,0.5-1 c0.1-0.2,0.1-0.4,0.2-0.6c0-0.7,0.1-1.4,0.1-2.1c0-2.5,0-5,0-7.6c0-0.1,0-0.2,0-0.4c-0.2,0.1-0.2,0.2-0.2,0.3 c-0.3,0.9-0.6,1.7-0.9,2.6c-1.1,3-2.2,6-3.2,8.9c-0.1,0.3-0.1,0.3-0.3,0.3c-0.8,0-1.7,0-2.5,0c0,0-0.1,0-0.1,0 c-0.5-1.4-1-2.7-1.5-4.1c-0.5-1.4-1-2.7-1.5-4.1c-0.5-1.4-1-2.7-1.5-4.1c0,0-0.1,0-0.1,0c0,0.1,0,0.2,0,0.2c0,3,0,6.1,0,9.1 c0,0.8,0.2,1.6,0.6,2.3C43.1,57.4,43.2,57.5,43.3,57.7z"/> <path d="M127.4,57.8c-0.1,0-0.2,0-0.3,0c-0.9,0-1.9,0-2.8,0c-0.2,0-0.4-0.1-0.5-0.3c-1-1.7-2-3.4-3-5.1c-1.2-2-2.4-4-3.6-6 c-0.1-0.2-0.2-0.4-0.4-0.6c-0.1-0.1-0.1-0.2-0.3-0.3c0,0,0,0.1,0,0.1c0,3,0,6.1,0,9.1c0,0.4,0,0.8,0.1,1.1c0,0.5,0.3,0.9,0.5,1.3 c0.1,0.2,0.2,0.4,0.4,0.7c-0.2,0.1-3.8,0.1-4.2,0c0-0.1,0.1-0.2,0.1-0.3c0.1-0.2,0.2-0.4,0.3-0.5c0.3-0.5,0.5-1.1,0.5-1.8 c0-3.4,0-6.7,0-10.1c0-0.3,0-0.6-0.1-0.9c0-0.2-0.1-0.3-0.1-0.5c-0.2-0.4-0.4-0.8-0.6-1.2c0-0.1-0.1-0.1-0.1-0.2c0.1,0,0.2,0,0.3,0 c1.5,0,3,0,4.4,0c0.2,0,0.3,0.1,0.4,0.2c1.5,2.6,3.1,5.3,4.6,7.9c0.6,1,1.2,2.1,1.8,3.1c0,0.1,0.1,0.2,0.1,0.2c0,0,0,0,0.1,0 c0-0.1,0-0.2,0-0.2c0-2.4,0-4.8,0-7.2c0-0.7-0.1-1.4-0.1-2.2c0-0.1-0.1-0.3-0.1-0.4c-0.2-0.4-0.3-0.7-0.5-1 c-0.1-0.1-0.1-0.2-0.2-0.4c1.4,0,2.8,0,4.1,0c0.1,0.1,0,0.2-0.1,0.3c-0.2,0.4-0.4,0.8-0.6,1.2c-0.1,0.1-0.1,0.3-0.1,0.4 c-0.1,0.7-0.1,1.4-0.1,2.1c0,3.7,0,7.4,0,11.1C127.4,57.4,127.4,57.6,127.4,57.8z"/> <path d="M60.4,57.7c0.1-0.1,0.1-0.2,0.2-0.3c0.6-0.8,0.8-1.8,0.8-2.8c0-2.8,0-5.7,0-8.5c0-0.6-0.1-1.3-0.1-1.9 c0-0.2-0.1-0.4-0.2-0.6c-0.2-0.3-0.3-0.7-0.5-1c-0.1-0.1-0.1-0.2-0.2-0.4c0.1,0,0.2,0,0.3,0c1.8,0,3.7,0,5.5,0 c1.3,0,2.5,0.1,3.8,0.5c0.5,0.1,0.9,0.4,1.2,0.6c1.2,0.9,1.5,2.8,0.5,4c-0.4,0.5-0.8,0.8-1.4,1.1c-0.3,0.1-0.6,0.3-0.8,0.5 c0.1,0,0.2,0.1,0.3,0.1c0.6,0.1,1.2,0.3,1.7,0.6c0.9,0.5,1.5,1.3,1.7,2.3c0.2,1,0.2,2-0.1,2.9c-0.3,0.8-0.8,1.4-1.5,1.9 c-0.7,0.4-1.4,0.7-2.3,0.8c-0.8,0.1-1.6,0.1-2.3,0.1c-2.1,0-4.3,0-6.4,0C60.5,57.8,60.5,57.8,60.4,57.7z M64.5,55.8 C64.5,55.8,64.5,55.8,64.5,55.8c1,0.1,2,0.1,2.9,0.2c0.4,0,0.8-0.1,1.2-0.2c0.7-0.3,1.2-0.8,1.4-1.5c0.2-0.7,0.2-1.4,0-2 c-0.2-0.7-0.6-1.2-1.3-1.4c-0.4-0.1-0.8-0.2-1.2-0.2c-0.9,0-1.8,0-2.8,0c-0.1,0-0.2,0-0.2,0C64.5,52.3,64.5,54.1,64.5,55.8z M64.5,48.9C64.5,48.9,64.5,48.9,64.5,48.9c1.2,0,2.3,0,3.4,0c0.1,0,0.2,0,0.2-0.1c0.6-0.5,0.9-1.1,1-1.9c0-0.4,0-0.8,0-1.3 c-0.1-0.8-0.5-1.3-1.3-1.5C67.3,44,66.9,44,66.6,44c-0.6,0-1.3,0-1.9,0c-0.1,0-0.1,0-0.2,0C64.5,45.6,64.5,47.2,64.5,48.9z"/> <path d="M100.2,50.5c0.1,0.2,0.2,0.3,0.3,0.4c1.5,2.1,2.9,4.3,4.4,6.4c0.1,0.1,0.1,0.3,0.2,0.4c-0.1,0-0.2,0-0.3,0c-1,0-2,0-3.1,0 c-0.2,0-0.3-0.1-0.4-0.2c-0.9-1.4-1.8-2.7-2.7-4.1c-0.4-0.7-0.9-1.4-1.3-2c-0.1-0.1-0.2-0.2-0.4-0.2c-0.5,0-1,0-1.4,0 c-0.1,0-0.2,0-0.3,0c0,0.1,0,0.2,0,0.3c0,1.1,0,2.2,0,3.3c0,0.4,0,0.7,0.1,1.1c0,0.1,0.1,0.3,0.1,0.4c0.2,0.4,0.4,0.7,0.5,1.1 c0.1,0.1,0.1,0.2,0.2,0.4c-0.6,0.1-1.1,0-1.7,0c-0.6,0-1.1,0-1.7,0c-0.5,0-1.1,0-1.7,0c0-0.1,0-0.1,0-0.2c0-0.1,0.1-0.2,0.1-0.2 c0.5-0.8,0.7-1.7,0.7-2.6c0-3.1,0-6.2,0-9.3c0-0.4,0-0.7-0.1-1.1c0-0.5-0.3-0.9-0.5-1.4c-0.1-0.2-0.2-0.3-0.2-0.4 c0-0.1-0.1-0.2-0.1-0.3c0.1,0,0.2,0,0.3,0c2.4,0,4.7,0,7.1,0c0.7,0,1.4,0.1,2,0.3c1.7,0.6,2.7,1.8,3.1,3.5c0.1,0.6,0,1.2-0.3,1.8 c-0.3,0.6-0.9,1.2-1.4,1.6c-0.5,0.4-1,0.7-1.6,1C100.4,50.4,100.3,50.4,100.2,50.5z M95.3,49.4c0.1,0,0.1,0,0.1,0 c1.3,0.1,2.5,0.1,3.8,0.1c0.1,0,0.2,0,0.2-0.1c0.4-0.4,0.8-0.9,1-1.5c0.2-0.7,0.2-1.4,0.1-2.1c-0.2-0.9-0.7-1.4-1.5-1.6 c-0.3-0.1-0.7-0.1-1.1-0.1c-0.8,0-1.6,0-2.3,0c-0.1,0-0.1,0-0.2,0C95.3,45.8,95.3,47.6,95.3,49.4z"/> <path d="M74.4,42.2c1.7,0,3.3,0,5,0c-0.1,0.1-0.1,0.2-0.1,0.3c-0.1,0.2-0.2,0.5-0.4,0.7c-0.3,0.4-0.3,0.9-0.3,1.4 c-0.1,2.3-0.1,4.6,0,6.9c0,0.7,0.1,1.4,0.4,2c0.4,0.9,1,1.6,1.9,1.9c1.1,0.4,2.2,0.4,3.3,0c0.9-0.4,1.4-1.1,1.7-1.9 c0.2-0.7,0.3-1.3,0.3-2c0-1.9,0-3.8,0-5.7c0-0.5-0.1-1.1-0.1-1.6c0-0.2-0.1-0.3-0.1-0.5c-0.1-0.3-0.3-0.6-0.5-0.9 c-0.1-0.1-0.1-0.3-0.2-0.4c0.2-0.1,3.9-0.1,4.4,0c-0.1,0.1-0.1,0.2-0.2,0.3c-0.2,0.4-0.4,0.7-0.5,1.1c-0.1,0.2-0.1,0.3-0.1,0.5 c-0.2,1.7-0.1,3.4-0.1,5.1c0,0.8,0,1.6,0,2.4c-0.1,1.4-0.4,2.7-1.1,3.8c-0.7,1.1-1.7,1.8-3,2.2c-1.2,0.4-2.4,0.5-3.7,0.3 c-0.8-0.1-1.6-0.3-2.3-0.7c-1.4-0.7-2.3-1.9-2.8-3.4c-0.3-0.9-0.4-1.9-0.4-2.8c0-1.8,0-3.5,0-5.3c0-0.5,0-1.1-0.1-1.6 c0-0.2-0.1-0.4-0.2-0.6c-0.1-0.3-0.3-0.6-0.5-0.9C74.5,42.5,74.5,42.4,74.4,42.2z"/> <path d="M33.2,57.7c0-0.1,0.1-0.2,0.1-0.3c0.1-0.1,0.1-0.3,0.2-0.4c0.2-0.4,0.2-0.7,0.1-1.1c-0.1-0.8-0.4-1.5-0.6-2.2 c-2.1,0-4.1,0-6.2,0c-0.2,0.7-0.5,1.4-0.7,2.1c-0.1,0.4,0,0.8,0.1,1.1c0.1,0.1,0.1,0.3,0.2,0.4c0,0.1,0,0.2,0.1,0.3 c-1.4,0-2.7,0-4.1,0c0-0.1,0.1-0.2,0.1-0.3c0.8-1.3,1.4-2.7,2-4.2c0.6-1.5,1.2-3,1.8-4.5c0.8-2.1,1.6-4.2,2.5-6.3 c0.1-0.3,0.1-0.3,0.4-0.3c0.8,0,1.7,0,2.5,0c0.3,0,0.3,0,0.3,0.2c1.6,3.9,3.1,7.8,4.7,11.8c0.4,1,0.9,2,1.4,2.9 c0.1,0.2,0.2,0.4,0.3,0.6C36.6,57.7,34.9,57.7,33.2,57.7z M32.3,52c-0.1-0.6-2.1-6-2.4-6.4c-0.8,2.1-1.7,4.2-2.5,6.4 C29.1,52,30.7,52,32.3,52z"/> <path d="M139.9,46c-0.1-0.1-0.2-0.2-0.3-0.3c-0.7-0.9-1.6-1.5-2.8-1.7c-0.8-0.2-1.6-0.2-2.4,0.1c-0.2,0.1-0.3,0.1-0.4,0.2 c-0.6,0.3-1,0.9-1,1.6c0,0.8,0.3,1.3,1,1.7c0.8,0.5,1.6,0.7,2.4,1c0.9,0.3,1.7,0.6,2.5,1.2c1,0.7,1.5,1.6,1.7,2.8 c0.1,1,0,1.9-0.4,2.8c-0.5,1-1.2,1.8-2.2,2.2c-0.9,0.4-1.8,0.5-2.7,0.6c-1.3,0-2.6-0.2-3.8-0.7c-0.5-0.2-0.9-0.4-1.3-0.8 c-0.1-0.1-0.2-0.2-0.2-0.4c0-0.9,0-1.7,0-2.6c0-0.1,0-0.1,0-0.1c0-0.1,0.1-0.2,0.2-0.1c0.1,0,0.1,0.1,0.1,0.2 c1.1,1.3,2.4,2.1,4,2.3c0.6,0.1,1.3,0.1,1.9-0.1c1.3-0.5,1.6-1.7,1.3-2.6c-0.1-0.4-0.3-0.6-0.6-0.8c-0.3-0.2-0.5-0.4-0.8-0.5 c-0.8-0.3-1.6-0.6-2.4-0.9c-0.7-0.3-1.5-0.6-2.1-1.1c-1.1-0.9-1.7-2-1.6-3.5c0.1-1.6,0.8-2.7,2.1-3.6c1-0.6,2.1-0.9,3.2-0.9 c0.9,0,1.7,0,2.6,0.2c0.7,0.2,1.4,0.5,2,0.9c0.1,0.1,0.1,0.1,0.1,0.2c0,0.8,0,1.7,0,2.5C140,45.8,139.9,45.9,139.9,46z"/> <path d="M15,44.4c-2-0.1-3.8,0.1-5.5,1.3c-0.1-0.2-0.1-2.8-0.1-3.4c0.2-0.1,13.8-0.1,14.2,0c0,1.1,0,2.2,0,3.4 c-0.1,0-0.2-0.1-0.2-0.1c-0.3-0.2-0.6-0.3-0.8-0.5c-0.8-0.4-1.7-0.6-2.6-0.7c-0.6,0-1.2,0-1.9,0c0,0.1,0,0.2,0,0.3 c0,3.1,0,6.2,0,9.2c0,0.6,0,1.2,0.1,1.9c0,0.2,0.1,0.5,0.2,0.7c0.2,0.3,0.3,0.7,0.5,1c0,0.1,0.1,0.2,0.2,0.3c-1.7,0-3.3,0-5,0 c0-0.1,0.1-0.2,0.1-0.2c0.1-0.2,0.2-0.5,0.4-0.7c0.3-0.5,0.4-1,0.4-1.6c0-0.6,0-1.1,0.1-1.7c0-2.9,0-5.9,0-8.8 C15,44.6,15,44.5,15,44.4z"/> <path d="M111.3,57.7c-1.7,0-3.3,0-5,0c-0.1-0.1,0-0.2,0.1-0.3c0.2-0.3,0.3-0.7,0.5-1c0.1-0.2,0.2-0.5,0.2-0.7 c0-0.4,0.1-0.8,0.1-1.2c0-3,0-6.1,0-9.1c0-0.4,0-0.8-0.1-1.1c0-0.5-0.3-1-0.6-1.4c-0.1-0.2-0.2-0.3-0.3-0.5c0,0,0-0.1,0-0.1 c0,0,0,0,0,0c0.1,0,0.2,0,0.2,0c1.5,0,3.1,0,4.6,0c0,0,0,0,0.1,0c0,0.1-0.1,0.2-0.1,0.3c-0.1,0.2-0.2,0.3-0.2,0.4 c-0.4,0.6-0.5,1.2-0.5,1.9c0,0.4,0,0.8,0,1.1c0,2.6,0,5.2,0,7.8c0,0.7,0,1.3,0.1,2c0,0.2,0.1,0.4,0.1,0.5c0.2,0.4,0.4,0.7,0.5,1.1 C111.2,57.5,111.2,57.6,111.3,57.7z"/> </g> <rect y="-25" class="st0" width="150" height="150"/> </svg>